<?xml version='1.0' encoding='iso-8859-1'?>
<!DOCTYPE svg PUBLIC '-//W3C//DTD SVG 1.1//EN' 'http://www.w3.org/Graphics/SVG/1.1/DTD/svg11.dtd'>
<svg version="1.1" xmlns="http://www.w3.org/2000/svg" viewBox="0 0 297 297" xmlns:xlink="http://www.w3.org/1999/xlink" enable-background="new 0 0 297 297">
  <g>
    <path d="M49.681,168.861H32.307c-10.778,0-19.547,8.769-19.547,19.546v89.046C12.76,288.23,21.528,297,32.307,297h17.374   c10.778,0,19.547-8.77,19.547-19.547v-89.046C69.228,177.63,60.459,168.861,49.681,168.861z"/>
    <path d="m207.569,222.614h-118.138c-2.75,0-5,2.25-5,5v44.839c0,2.75 2.25,5 5,5h118.139c2.75,0 5-2.25 5-5v-44.839c-0.001-2.75-2.251-5-5.001-5z"/>
    <path d="m264.693,168.861h-17.374c-10.778,0-19.547,8.769-19.547,19.546v89.046c0,10.777 8.768,19.547 19.547,19.547h17.374c10.778,0 19.547-8.77 19.547-19.547v-89.046c0-10.777-8.768-19.546-19.547-19.546z"/>
    <path d="m116.634,49.032c-3.605,3.604-3.605,9.448-0.001,13.053 3.604,3.604 9.449,3.604 13.054,0.001 10.373-10.371 27.251-10.371 37.624,0 1.802,1.803 4.163,2.703 6.526,2.703 2.362,0 4.726-0.901 6.527-2.704 3.604-3.604 3.604-9.448-0.001-13.053-17.57-17.568-46.161-17.568-63.729,1.42109e-14z"/>
    <path d="m101.813,37.801c12.471-12.472 29.051-19.34 46.689-19.34 17.636,0 34.215,6.868 46.684,19.34 1.802,1.803 4.164,2.704 6.526,2.704s4.725-0.901 6.526-2.703c3.605-3.604 3.605-9.448 0.001-13.054-15.954-15.959-37.17-24.748-59.738-24.748-22.568,0-43.786,8.789-59.742,24.748-3.605,3.605-3.605,9.449 0.001,13.054 3.603,3.603 9.449,3.604 13.053-0.001z"/>
    <path d="m257.823,153.658l5.094-35.658c1.452-10.164-1.395-20.235-7.81-27.632-6.415-7.397-15.982-11.639-26.249-11.639h-160.716c-10.267,0-19.834,4.241-26.249,11.639-6.415,7.396-9.262,17.468-7.81,27.632l5.094,35.658h10.504c19.161,0 34.75,15.589 34.75,34.749v19.004h128.139v-19.004c0-19.16 15.589-34.749 34.75-34.749h10.503zm-139.787,12.977c-1.412,1.412-3.366,2.227-5.375,2.227-1.998,0-3.953-0.814-5.375-2.227-1.412-1.423-2.227-3.377-2.227-5.375 0-1.998 0.814-3.965 2.227-5.376 1.422-1.411 3.377-2.226 5.375-2.226 2.009,0 3.963,0.814 5.375,2.226 1.423,1.411 2.227,3.378 2.227,5.376 0,1.998-0.804,3.952-2.227,5.375zm0-35.835c-1.412,1.411-3.366,2.226-5.375,2.226-1.998,0-3.953-0.814-5.375-2.226-1.412-1.413-2.227-3.378-2.227-5.376 0-1.998 0.814-3.964 2.227-5.375 1.422-1.412 3.377-2.226 5.375-2.226 2.009,0 3.963,0.814 5.375,2.226 1.412,1.411 2.227,3.377 2.227,5.375 0,2.009-0.815,3.963-2.227,5.376zm71.671,35.835c-1.412,1.412-3.366,2.227-5.375,2.227-1.998,0-3.953-0.814-5.375-2.227-1.412-1.412-2.227-3.377-2.227-5.375 0-1.998 0.814-3.965 2.227-5.376 1.422-1.411 3.377-2.226 5.375-2.226 2.009,0 3.963,0.814 5.375,2.226 1.423,1.411 2.227,3.378 2.227,5.376 0,1.998-0.804,3.963-2.227,5.375zm0-35.835c-1.412,1.411-3.377,2.226-5.375,2.226-1.998,0-3.953-0.814-5.375-2.226-1.412-1.413-2.227-3.367-2.227-5.376 0-1.998 0.814-3.964 2.227-5.375 1.422-1.412 3.377-2.226 5.375-2.226 2.009,0 3.963,0.814 5.375,2.226 1.423,1.411 2.227,3.377 2.227,5.375 0,1.998-0.804,3.963-2.227,5.376z"/>
  </g>
</svg>
