<?xml version="1.0" encoding="iso-8859-1"?>
<!-- Generator: Adobe Illustrator 19.0.0, SVG Export Plug-In . SVG Version: 6.00 Build 0)  -->
<svg version="1.1" id="Layer_1" xmlns="http://www.w3.org/2000/svg" xmlns:xlink="http://www.w3.org/1999/xlink" x="0px" y="0px"
	 viewBox="0 0 512 512" style="enable-background:new 0 0 512 512;" xml:space="preserve">
<g>
	<g>
		<path d="M454.194,8.258H148.645v495.484h305.548c31.926,0,57.806-25.881,57.806-57.806V66.065
			C512,34.139,486.119,8.258,454.194,8.258z M342.07,371.613l-14.002-45.267h-61.554l-13.677,45.267h-64.811l80.443-231.226h57.967
			l80.118,231.226H342.07z"/>
	</g>
</g>
<g>
	<g>
		<polygon points="297.456,212.358 275.958,284.006 317.97,284.006 		"/>
	</g>
</g>
<g>
	<g>
		<path d="M49.548,8.258v89.739H24.774C11.092,97.997,0,109.089,0,122.771s11.092,24.774,24.774,24.774h24.774v82.581H24.774
			C11.092,230.126,0,241.218,0,254.9s11.092,24.774,24.774,24.774h24.774v82.581H24.774C11.092,362.255,0,373.347,0,387.029
			s11.092,24.774,24.774,24.774h24.774v91.939h49.548V8.258H49.548z"/>
	</g>
</g>
<g>
</g>
<g>
</g>
<g>
</g>
<g>
</g>
<g>
</g>
<g>
</g>
<g>
</g>
<g>
</g>
<g>
</g>
<g>
</g>
<g>
</g>
<g>
</g>
<g>
</g>
<g>
</g>
<g>
</g>
</svg>
