<svg id="Layer_1" data-name="Layer 1" xmlns="http://www.w3.org/2000/svg" xmlns:xlink="http://www.w3.org/1999/xlink" viewBox="0 0 100 100"><defs><style>.cls-1{fill:none;}.cls-2{clip-path:url(#clip-path);}.cls-3{fill:#e95317;}.cls-4{fill:#00394c;}</style><clipPath id="clip-path"><rect class="cls-1" x="17" y="9.53" width="66" height="80.81"/></clipPath></defs><g class="cls-2"><path class="cls-3" d="M43.59,44.22h0a6.32,6.32,0,1,1,6.32-6.32,6.32,6.32,0,0,1-6.32,6.32"/><path class="cls-4" d="M70.55,86.74a1,1,0,0,1-.83,1H20.4a1,1,0,0,1-.82-1V17.17a1,1,0,0,1,.82-1H60.19l-.68-2.7H20.4a3.63,3.63,0,0,0-3.52,3.73V86.74a3.64,3.64,0,0,0,3.52,3.73H69.72a3.64,3.64,0,0,0,3.53-3.73V80.2a14.27,14.27,0,0,1-2.7.8Z"/><path class="cls-4" d="M70.62,28.14l-.05-.07v2c0,1.31,0,3.44,0,4.76V53.28a14.27,14.27,0,0,1,2.7.8V34.83c0-1.31,0-3.44,0-4.75V28.49Z"/></g><rect class="cls-4" x="27.48" y="21.82" width="11.71" height="11.71" transform="translate(-9.8 31.67) rotate(-45)"/><g class="cls-2"><path class="cls-3" d="M67.65,82.08A15.47,15.47,0,1,1,83.12,66.61,15.48,15.48,0,0,1,67.65,82.08Zm0-28.24A12.77,12.77,0,1,0,80.42,66.61,12.78,12.78,0,0,0,67.65,53.84Z"/></g><path class="cls-4" d="M50.68,55.73H26.08a1.35,1.35,0,0,1,0-2.7h24.6a1.35,1.35,0,1,1,0,2.7Z"/><path class="cls-4" d="M42.83,65.14H26.08a1.35,1.35,0,1,1,0-2.69H42.83a1.35,1.35,0,1,1,0,2.69Z"/><path class="cls-4" d="M42.83,74.65H26.08a1.35,1.35,0,0,1,0-2.7H42.83a1.35,1.35,0,1,1,0,2.7Z"/><path class="cls-3" d="M67.65,74.52a1.35,1.35,0,0,1-1.35-1.34V61.46a1.35,1.35,0,1,1,2.7,0V73.18A1.34,1.34,0,0,1,67.65,74.52Z"/><path class="cls-3" d="M62.87,65.88A1.35,1.35,0,0,1,62,63.54l5.69-5.22,5.41,5a1.35,1.35,0,0,1-1.82,2L67.65,62l-3.86,3.55A1.39,1.39,0,0,1,62.87,65.88Z"/><g class="cls-2"><path class="cls-4" d="M72.54,27.16c1.13,1.19.72,2.15-.92,2.15H61.46a3,3,0,0,1-3-3l-.15-11.27c0-1.64.87-2,2-.82Z"/></g></svg>