<svg id="Layer_1" data-name="Layer 1" xmlns="http://www.w3.org/2000/svg" xmlns:xlink="http://www.w3.org/1999/xlink" viewBox="0 0 99.21 99.21"><defs><style>.cls-1{fill:none;}.cls-2{clip-path:url(#clip-path);}.cls-3{fill:#e95317;}.cls-4{fill:#00394c;}</style><clipPath id="clip-path"><rect class="cls-1" x="13.59" y="8.19" width="72.02" height="82.84"/></clipPath></defs><g class="cls-2"><path class="cls-3" d="M42.84,81.91h0a6.26,6.26,0,1,1,6.26-6.26,6.26,6.26,0,0,1-6.26,6.26"/></g><rect class="cls-4" x="26.89" y="59.72" width="11.59" height="11.59" transform="translate(-36.75 42.3) rotate(-45)"/><path class="cls-4" d="M26.06,43.72H58.91a1.25,1.25,0,0,0,0-2.5H26.06a1.25,1.25,0,0,0,0,2.5Z"/><path class="cls-4" d="M60.16,50.87a1.25,1.25,0,0,0-1.25-1.25H26.06a1.25,1.25,0,1,0,0,2.5H58.91A1.25,1.25,0,0,0,60.16,50.87Z"/><path class="cls-4" d="M52.91,29.32a3,3,0,0,0-2.83-3.11H35.84A3.67,3.67,0,0,0,32,29.71v6H52.91Z"/><path class="cls-4" d="M42.46,25.16a4.71,4.71,0,0,0,4.71-4.71V18.68a4.71,4.71,0,1,0-9.42,0v1.77A4.71,4.71,0,0,0,42.46,25.16Z"/><path class="cls-4" d="M82.32,74.9a1.25,1.25,0,0,0-1.25,1.25v4.51a.31.31,0,0,1-.31.31H61.09a.3.3,0,0,1-.3-.31V61a.3.3,0,0,1,.3-.31h14.4a1.25,1.25,0,0,0,0-2.5h-2.4V12.48A4.09,4.09,0,0,0,69,8.4H15.93a4.09,4.09,0,0,0-4.09,4.08V87.15a4.09,4.09,0,0,0,4.09,4.09H69a4.1,4.1,0,0,0,4.09-4.09V83.47h7.67a2.81,2.81,0,0,0,2.81-2.81V76.15A1.25,1.25,0,0,0,82.32,74.9ZM70.59,87.15A1.59,1.59,0,0,1,69,88.74H15.93a1.59,1.59,0,0,1-1.59-1.59V12.48a1.59,1.59,0,0,1,1.59-1.58H69a1.59,1.59,0,0,1,1.59,1.58V58.17h-9.5A2.81,2.81,0,0,0,58.29,61V80.66a2.81,2.81,0,0,0,2.8,2.81h9.5Z"/><path class="cls-3" d="M71.79,76.84,64.59,71a1.25,1.25,0,0,1,1.58-1.94l5.22,4.25L82.25,59.55a1.25,1.25,0,1,1,2,1.55Z"/></svg>