<svg id="Layer_1" data-name="Layer 1" xmlns="http://www.w3.org/2000/svg" xmlns:xlink="http://www.w3.org/1999/xlink" viewBox="0 0 100 100"><defs><style>.cls-1{fill:none;}.cls-2{clip-path:url(#clip-path);}.cls-3{fill:#00394c;}.cls-4{fill:#e95317;}</style><clipPath id="clip-path"><rect class="cls-1" x="14" y="12.68" width="72" height="74.63"/></clipPath></defs><g class="cls-2"><path class="cls-3" d="M77.78,87.43H31.31a3.71,3.71,0,0,1-3.68-3l-.29-1.86a1.34,1.34,0,0,1,2.64-.4L30.27,84a1.09,1.09,0,0,0,1,.73H77.78a1.18,1.18,0,0,0,1.08-.93l4.57-29.89a.45.45,0,0,0-.08-.38.49.49,0,0,0-.36-.14H25.86a.24.24,0,0,0-.2.07.21.21,0,0,0,0,.2l.59,3.89a1.34,1.34,0,1,1-2.64.41L23,54.1a2.86,2.86,0,0,1,2.88-3.35H83a3.06,3.06,0,0,1,3.08,3.59L81.5,84.24A3.84,3.84,0,0,1,77.78,87.43Z"/><path class="cls-3" d="M55.85,52.13H53.18a12.66,12.66,0,0,0-25.31,0H25.2a15.33,15.33,0,0,1,30.65,0Z"/><path class="cls-3" d="M41.27,39.13,40,39c-.23,0-5.67-.59-8.78-4.44a10.05,10.05,0,0,1-2-7.76l.13-1.1,1.11-.07c.22,0,5.43-.32,8.68,3.13,2,2.15,2.8,5.21,2.31,9.08Zm-9.48-10.8a7.07,7.07,0,0,0,1.49,4.55A10.45,10.45,0,0,0,38.9,36.1a7.4,7.4,0,0,0-1.71-5.5A8.36,8.36,0,0,0,31.79,28.33Z"/><path class="cls-3" d="M45,37.88H42.31V30.81a4.88,4.88,0,0,1,.91-2.68l5-6.52v-3h2.67v3.88l-5.57,7.24a2.31,2.31,0,0,0-.36,1Z"/><path class="cls-3" d="M64.39,37.88H61.71V30.81a2.3,2.3,0,0,0-.35-1l-5.57-7.24V18.64h2.67v3l5,6.52a5,5,0,0,1,.91,2.68Z"/><path class="cls-3" d="M83.42,51.51H80.75V39.68c0-.56-.35-1-.75-1H56.66c-.4,0-.74.49-.74,1V51.51H53.24V39.68A3.59,3.59,0,0,1,56.66,36H80a3.58,3.58,0,0,1,3.42,3.73Z"/><path class="cls-3" d="M57.32,19.61H49.39A2.38,2.38,0,0,1,47,17.23V15a2.38,2.38,0,0,1,2.37-2.38h7.93A2.39,2.39,0,0,1,59.7,15v2.28A2.39,2.39,0,0,1,57.32,19.61Zm-7.63-2.68H57V15.24H49.69Z"/></g><path class="cls-4" d="M44.23,63.06H25a1,1,0,0,1,0-2H44.23a1,1,0,0,1,0,2Z"/><path class="cls-4" d="M44.23,70.76H25a1,1,0,0,1,0-2H44.23a1,1,0,1,1,0,2Z"/><path class="cls-4" d="M44.23,78.47H25a1,1,0,0,1,0-2H44.23a1,1,0,1,1,0,2Z"/><g class="cls-2"><path class="cls-4" d="M18.89,65.41H15.12A1.16,1.16,0,0,1,14,64.25V60.49a1.16,1.16,0,0,1,1.15-1.16h3.77a1.16,1.16,0,0,1,1.16,1.16v3.76A1.16,1.16,0,0,1,18.89,65.41Zm-3.77-5.3a.38.38,0,0,0-.38.38v3.76a.38.38,0,0,0,.38.39h3.77a.38.38,0,0,0,.38-.39V60.49a.38.38,0,0,0-.38-.38Z"/><rect class="cls-4" x="14.22" y="66.99" width="5.58" height="5.58" rx="0.81"/><path class="cls-4" d="M18.89,80.23H15.12A1.16,1.16,0,0,1,14,79.07V75.31a1.16,1.16,0,0,1,1.15-1.16h3.77a1.16,1.16,0,0,1,1.16,1.16v3.76A1.16,1.16,0,0,1,18.89,80.23Zm-3.77-5.3a.38.38,0,0,0-.38.38v3.76a.38.38,0,0,0,.38.39h3.77a.38.38,0,0,0,.38-.39V75.31a.38.38,0,0,0-.38-.38Z"/><path class="cls-4" d="M67.9,81h0a5.67,5.67,0,1,1,5.67-5.67A5.67,5.67,0,0,1,67.9,81"/></g><rect class="cls-3" x="53.44" y="60.92" width="10.51" height="10.51" transform="translate(-29.6 60.88) rotate(-45)"/></svg>