<svg width="80" height="80" viewBox="-15 -15 100 100" fill="none" xmlns="http://www.w3.org/2000/svg">
<path d="M13.68 67.1018H2.27C1.66796 67.1018 1.09057 66.8626 0.664867 66.4369C0.23916 66.0112 0 65.4338 0 64.8318V50.5518C0 49.9497 0.23916 49.3723 0.664867 48.9466C1.09057 48.5209 1.66796 48.2818 2.27 48.2818H13.68C14.282 48.2818 14.8594 48.5209 15.2851 48.9466C15.7108 49.3723 15.95 49.9497 15.95 50.5518V64.8318C15.95 65.4338 15.7108 66.0112 15.2851 66.4369C14.8594 66.8626 14.282 67.1018 13.68 67.1018ZM2.5 64.6018H13.5V50.7418H2.5V64.6018Z" fill="#00394C"/>
<path d="M33.64 67.1018H22.23C21.6297 67.0991 21.0548 66.8588 20.6313 66.4334C20.2078 66.008 19.97 65.4321 19.97 64.8318V41.6818C19.97 41.0815 20.2078 40.5056 20.6313 40.0802C21.0548 39.6547 21.6297 39.4144 22.23 39.4118H33.64C34.242 39.4118 34.8194 39.6509 35.2451 40.0766C35.6708 40.5023 35.91 41.0797 35.91 41.6818V64.8318C35.91 65.4338 35.6708 66.0112 35.2451 66.4369C34.8194 66.8626 34.242 67.1018 33.64 67.1018ZM22.47 64.6018H33.41V41.9118H22.47V64.6018Z" fill="#00394C"/>
<path d="M53.05 67.1018H41.64C41.3411 67.1031 41.0448 67.0454 40.7682 66.9319C40.4917 66.8184 40.2403 66.6514 40.0284 66.4405C39.8166 66.2295 39.6485 65.9788 39.5338 65.7028C39.419 65.4267 39.36 65.1307 39.36 64.8318V32.8318C39.3587 32.532 39.4168 32.2349 39.5309 31.9577C39.645 31.6805 39.8129 31.4286 40.0249 31.2166C40.2368 31.0046 40.4887 30.8368 40.7659 30.7226C41.0431 30.6085 41.3402 30.5505 41.64 30.5518H53.05C53.354 30.5464 53.656 30.6021 53.938 30.7157C54.22 30.8292 54.4764 30.9983 54.6919 31.2128C54.9073 31.4273 55.0775 31.683 55.1923 31.9645C55.307 32.246 55.3641 32.5478 55.36 32.8518V64.8518C55.3574 65.1516 55.2955 65.4479 55.1777 65.7236C55.06 65.9994 54.8887 66.249 54.674 66.4582C54.4592 66.6674 54.2051 66.832 53.9264 66.9425C53.6476 67.0529 53.3498 67.1071 53.05 67.1018ZM41.87 64.6018H52.81V33.0818H41.87V64.6018Z" fill="#00394C"/>
<path d="M72.45 67.1018H61.04C60.438 67.1018 59.8606 66.8626 59.4349 66.4369C59.0092 66.0112 58.77 65.4338 58.77 64.8318V23.7418C58.77 23.1397 59.0092 22.5624 59.4349 22.1366C59.8606 21.7109 60.438 21.4718 61.04 21.4718H72.45C73.0521 21.4718 73.6294 21.7109 74.0551 22.1366C74.4809 22.5624 74.72 23.1397 74.72 23.7418V64.8318C74.72 65.4338 74.4809 66.0112 74.0551 66.4369C73.6294 66.8626 73.0521 67.1018 72.45 67.1018ZM61.27 64.6018H72.27V23.9718H61.27V64.6018Z" fill="#00394C"/>
<path d="M67.15 18.2118C67.0539 18.2259 66.9562 18.2259 66.86 18.2118C66.7009 18.1742 66.5507 18.1055 66.4182 18.0096C66.2856 17.9138 66.1734 17.7927 66.0879 17.6532C66.0023 17.5138 65.9453 17.3589 65.9199 17.1973C65.8945 17.0357 65.9014 16.8707 65.94 16.7118L67.36 10.7318L61.36 8.55177C61.0478 8.43682 60.7936 8.20302 60.6531 7.90139C60.5126 7.59975 60.4971 7.25478 60.61 6.94177C60.6658 6.7876 60.7515 6.64601 60.8624 6.5252C60.9732 6.40438 61.1068 6.30674 61.2556 6.23792C61.4044 6.16911 61.5654 6.13048 61.7292 6.12427C61.893 6.11807 62.0565 6.1444 62.21 6.20177L69.21 8.75177C69.4997 8.85644 69.7405 9.06435 69.8863 9.33563C70.0321 9.60691 70.0726 9.92246 70 10.2218L68.36 17.2518C68.2935 17.5234 68.1385 17.7651 67.9194 17.9389C67.7003 18.1127 67.4297 18.2087 67.15 18.2118Z" fill="#E95317"/>
<path d="M1.63005 41.0518C1.38751 41.052 1.15023 40.981 0.947605 40.8477C0.744978 40.7144 0.585895 40.5246 0.490051 40.3018C0.423541 40.1515 0.387339 39.9895 0.383517 39.8252C0.379694 39.6608 0.408327 39.4973 0.467776 39.3441C0.527224 39.1908 0.616321 39.0508 0.729964 38.932C0.843607 38.8132 0.979564 38.718 1.13005 38.6518L65.9701 10.0818C66.1204 10.0153 66.2824 9.97911 66.4467 9.97528C66.6111 9.97146 66.7746 10.0001 66.9278 10.0595C67.0811 10.119 67.2211 10.2081 67.3399 10.3217C67.4587 10.4354 67.5539 10.5713 67.6201 10.7218C67.6864 10.8714 67.7224 11.0327 67.7261 11.1963C67.7298 11.3599 67.7011 11.5226 67.6416 11.6751C67.5821 11.8276 67.493 11.9667 67.3795 12.0846C67.2659 12.2024 67.1302 12.2967 66.9801 12.3618L2.14005 40.9418C1.9789 41.0115 1.80562 41.0489 1.63005 41.0518Z" fill="#E95317"/>
<path d="M21.74 24.3418C20.5138 24.3418 19.3151 23.9782 18.2955 23.2969C17.2759 22.6157 16.4813 21.6473 16.012 20.5144C15.5427 19.3815 15.4199 18.1349 15.6592 16.9322C15.8984 15.7296 16.4889 14.6248 17.356 13.7577C18.2231 12.8907 19.3278 12.3002 20.5305 12.0609C21.7332 11.8217 22.9798 11.9445 24.1127 12.4138C25.2456 12.883 26.2139 13.6777 26.8952 14.6973C27.5764 15.7169 27.94 16.9156 27.94 18.1418C27.94 19.7861 27.2868 21.3631 26.1241 22.5259C24.9614 23.6886 23.3844 24.3418 21.74 24.3418Z" fill="#E95317"/>
<path d="M11.699 1.21397e-05L3.57996 8.11618L11.6961 16.2352L19.8151 8.11901L11.699 1.21397e-05Z" fill="#00394C"/>
</svg>
