<svg id="Layer_1" data-name="Layer 1" xmlns="http://www.w3.org/2000/svg" xmlns:xlink="http://www.w3.org/1999/xlink" viewBox="0 0 100 100"><defs><style>.cls-1{fill:none;}.cls-2{clip-path:url(#clip-path);}.cls-3{fill:#00394c;}.cls-4{fill:#fff;}.cls-5{fill:#e95317;}</style><clipPath id="clip-path"><rect class="cls-1" x="14.47" y="10.29" width="71.06" height="79.42"/></clipPath></defs><g class="cls-2"><path class="cls-3" d="M77.17,86.15H45.8a1.25,1.25,0,1,1,0-2.5H77.17a1.3,1.3,0,0,0,1.2-1L83,52.21a.58.58,0,0,0-.1-.48.57.57,0,0,0-.46-.18H24l.66,4.36a1.25,1.25,0,0,1-1,1.43,1.27,1.27,0,0,1-1.43-1.05l-.73-4.81a2.08,2.08,0,0,1,.47-1.7,2.12,2.12,0,0,1,1.61-.73h59a3,3,0,0,1,3,3.54L80.84,83A3.79,3.79,0,0,1,77.17,86.15Z"/><path class="cls-3" d="M54.75,50.35h-2.5a13,13,0,1,0-26,0h-2.5a15.48,15.48,0,1,1,31,0Z"/><path class="cls-3" d="M39.93,37l-1.2-.12c-.23,0-5.73-.6-8.86-4.49a10.09,10.09,0,0,1-2-7.8l.12-1,1-.07c.22,0,5.47-.32,8.74,3.15,2,2.17,2.82,5.25,2.32,9.15ZM30.28,26a7.3,7.3,0,0,0,1.54,4.82,10.81,10.81,0,0,0,5.9,3.34A7.73,7.73,0,0,0,36,28.38,8.74,8.74,0,0,0,30.28,26Z"/><path class="cls-3" d="M43.7,35.86H41.2v-7.2A4.88,4.88,0,0,1,42.1,26l5.13-6.65V16.28h2.5V20.2l-5.65,7.33a2.38,2.38,0,0,0-.38,1.13Z"/><path class="cls-3" d="M63.43,35.86h-2.5v-7.2a2.38,2.38,0,0,0-.38-1.13L54.9,20.2V16.28h2.5v3.07L62.53,26a4.88,4.88,0,0,1,.9,2.66Z"/><path class="cls-3" d="M82.79,49.72h-2.5v-12c0-.64-.39-1.18-.86-1.18H55.68c-.47,0-.86.54-.86,1.18v12h-2.5v-12A3.54,3.54,0,0,1,55.68,34H79.43a3.54,3.54,0,0,1,3.36,3.68Z"/><path class="cls-3" d="M56.35,17.08H48.29a2.23,2.23,0,0,1-2.23-2.23V12.53a2.23,2.23,0,0,1,2.23-2.24h8.06a2.24,2.24,0,0,1,2.24,2.24v2.32A2.23,2.23,0,0,1,56.35,17.08Zm-7.94-2.35h7.83V12.64H48.41Z"/><path class="cls-4" d="M29.77,88.46a14,14,0,1,0-14-14,14,14,0,0,0,14.05,14"/><path class="cls-5" d="M29.77,89.71a15.3,15.3,0,1,1,15.3-15.3A15.32,15.32,0,0,1,29.77,89.71Zm0-28.1a12.8,12.8,0,1,0,12.8,12.8A12.81,12.81,0,0,0,29.77,61.61Z"/></g><path class="cls-5" d="M29.77,82.19a1.25,1.25,0,0,1-1.25-1.25V69.28a1.25,1.25,0,0,1,2.5,0V80.94A1.25,1.25,0,0,1,29.77,82.19Z"/><path class="cls-5" d="M25,73.59a1.25,1.25,0,0,1-.84-2.18l5.6-5.13,5.32,4.88A1.25,1.25,0,0,1,33.4,73l-3.63-3.33-3.91,3.59A1.26,1.26,0,0,1,25,73.59Z"/><g class="cls-2"><path class="cls-5" d="M64.62,78h0a5.58,5.58,0,1,1,5.57-5.57A5.57,5.57,0,0,1,64.62,78"/></g><rect class="cls-3" x="50.41" y="58.2" width="10.33" height="10.33" transform="translate(-28.53 57.84) rotate(-44.99)"/></svg>