<svg id="Layer_1" data-name="Layer 1" xmlns="http://www.w3.org/2000/svg" xmlns:xlink="http://www.w3.org/1999/xlink" viewBox="0 0 100 100"><defs><style>.cls-1{fill:none;}.cls-2{clip-path:url(#clip-path);}.cls-3{fill:#00394c;}.cls-4{fill:#e95317;}</style><clipPath id="clip-path"><rect class="cls-1" x="7.46" y="20.73" width="85.47" height="58.54"/></clipPath></defs><g class="cls-2"><path class="cls-3" d="M59.14,62.88H16.25a2.77,2.77,0,0,1-2.77-2.77V23.51a2.78,2.78,0,0,1,2.77-2.78H72a2.79,2.79,0,0,1,2.78,2.78V45.78a1.24,1.24,0,0,1-2.48,0V23.51a.29.29,0,0,0-.3-.3H16.25a.29.29,0,0,0-.3.3v36.6a.29.29,0,0,0,.3.3H59.14a1.24,1.24,0,0,1,0,2.47Z"/><path class="cls-3" d="M60.84,71.39H11.38A3.33,3.33,0,0,1,8.25,69L7.08,64.66H60.66a1.24,1.24,0,1,1,0,2.47H10.31l.33,1.21a.87.87,0,0,0,.74.57H60.84a1.24,1.24,0,0,1,0,2.48Z"/><path class="cls-4" d="M40.54,57.4a.87.87,0,1,0-.87-.87.87.87,0,0,0,.87.87"/><path class="cls-4" d="M43.71,57.4a.87.87,0,1,0-.87-.87.87.87,0,0,0,.87.87"/><path class="cls-4" d="M46.83,57.4a.87.87,0,1,0-.87-.87.87.87,0,0,0,.87.87"/><path class="cls-4" d="M84.68,79.27a1.8,1.8,0,0,1-1.27-.53L74.17,69.5l-4.37,7a1.46,1.46,0,0,1-1.48.75,1.49,1.49,0,0,1-1.2-1.15l-7.59-28.3a1.53,1.53,0,0,1,1.91-1.91l28.31,7.59a1.44,1.44,0,0,1,.39,2.68l-7,4.37,9.25,9.24a1.81,1.81,0,0,1,0,2.54L86,78.74A1.8,1.8,0,0,1,84.68,79.27ZM74,66.54a1.69,1.69,0,0,1,1.19.5l9.47,9.47L90.17,71,80.7,61.56A1.65,1.65,0,0,1,81,59l5.89-3.69L62.33,48.68l6.59,24.56,3.68-5.9a1.71,1.71,0,0,1,1.23-.79Zm-4.51,8.91Zm-1.81-.27Zm23-4.64h0ZM82.31,61h0Zm6.53-7h0Z"/><path class="cls-4" d="M48.76,50.34h0a6,6,0,1,1,6-6,6,6,0,0,1-6,6"/></g><rect class="cls-3" x="33.59" y="29.24" width="11.02" height="11.02" transform="translate(-13.12 37.83) rotate(-44.99)"/></svg>