<svg id="Layer_1" data-name="Layer 1" xmlns="http://www.w3.org/2000/svg" xmlns:xlink="http://www.w3.org/1999/xlink" viewBox="0 0 100 100"><defs><style>.cls-1{fill:none;}.cls-2{clip-path:url(#clip-path);}.cls-3{fill:#e95317;}.cls-4{fill:#00394c;}</style><clipPath id="clip-path"><rect class="cls-1" x="7.69" y="20.48" width="85" height="59.04"/></clipPath></defs><g class="cls-2"><path class="cls-3" d="M38.65,54.8a.82.82,0,0,0,.81-.82.81.81,0,1,0-1.62,0,.82.82,0,0,0,.81.82"/><path class="cls-3" d="M41.62,54.8a.82.82,0,0,0,.81-.82.81.81,0,0,0-.81-.81.82.82,0,0,0-.82.81.82.82,0,0,0,.82.82"/><path class="cls-3" d="M44.54,54.8a.82.82,0,0,0,.82-.82.82.82,0,0,0-.82-.81.81.81,0,0,0-.81.81.82.82,0,0,0,.81.82"/><path class="cls-4" d="M59.9,65.48H11.35a.75.75,0,0,1-.61-.46l-.27-1H58.62a15.53,15.53,0,0,1-1.54-2.5H7.2l1.13,4.17a3.21,3.21,0,0,0,3,2.31H63.17A14.78,14.78,0,0,1,59.9,65.48Z"/><path class="cls-4" d="M70.54,71.28A16.34,16.34,0,1,1,86.88,55,16.35,16.35,0,0,1,70.54,71.28Zm0-30A13.64,13.64,0,1,0,84.18,55,13.65,13.65,0,0,0,70.54,41.31Z"/><path class="cls-3" d="M81.47,55.93a1,1,0,0,1-1-1,9.86,9.86,0,0,0-3.08-7.2A9.9,9.9,0,0,0,70.54,45a1,1,0,0,1,0-2,11.9,11.9,0,0,1,8.22,3.28,12.09,12.09,0,0,1,3,4.76A11.77,11.77,0,0,1,82.45,55,1,1,0,0,1,81.47,55.93Z"/><path class="cls-4" d="M91.45,79.63a1.38,1.38,0,0,1-1-.4L79.18,67.92A1.35,1.35,0,0,1,81.09,66L92.4,77.32a1.36,1.36,0,0,1-1,2.31Z"/><path class="cls-3" d="M47.42,49.25h0a5.75,5.75,0,1,1,5.74-5.75,5.74,5.74,0,0,1-5.74,5.75"/><path class="cls-4" d="M55.74,57.52H15.91a.18.18,0,0,1-.19-.19V23.06a.19.19,0,0,1,.19-.19H68.15a.2.2,0,0,1,.19.19V40a14.79,14.79,0,0,1,2.12-.16h.38V23.06a2.7,2.7,0,0,0-2.69-2.69H15.91a2.7,2.7,0,0,0-2.69,2.69V57.33A2.69,2.69,0,0,0,15.91,60H56.44A14.65,14.65,0,0,1,55.74,57.52Z"/></g><rect class="cls-4" x="32.78" y="28.89" width="10.64" height="10.64" transform="translate(-13.03 36.96) rotate(-45)"/></svg>